<svg id="Layer_1" data-name="Layer 1" xmlns="http://www.w3.org/2000/svg" width="692.61" height="80.36" viewBox="0 0 692.61 80.36">
  <defs>
    <style>
      .cls-1 {
        fill: #fff;
      }
    </style>
  </defs>
  <title>white_logo</title>
  <g>
    <path class="cls-1" d="M692.61,15a8.86,8.86,0,0,1-2.69,6.49,9.17,9.17,0,0,1-13,0,8.86,8.86,0,0,1-2.7-6.49,8.86,8.86,0,0,1,2.69-6.5,9.15,9.15,0,0,1,13,0A8.85,8.85,0,0,1,692.61,15Zm-1.37,0a7.84,7.84,0,0,0-15.67,0,7.56,7.56,0,0,0,2.3,5.53,7.82,7.82,0,0,0,11.08,0A7.56,7.56,0,0,0,691.25,15Zm-3.41-2.32q0,2.61-2.9,2.83l2.75,4.76H686l-2.71-4.76h-2.07v4.76h-1.37V10h4.48Q687.84,10,687.84,12.68Zm-1.42,0q0-1.32-2.24-1.32h-2.92v2.78h2.92a3.22,3.22,0,0,0,1.81-.36A1.28,1.28,0,0,0,686.42,12.65Z"/>
    <path class="cls-1" d="M85.9,71.13H63l1.27-28.69L50.59,71.13H35.28L30.72,42.44,22.9,71.13H0L18.39,6.37H45.11l3.15,31.25,13-31.25H88Z"/>
    <path class="cls-1" d="M241.14,71.13h-23.7l-13.8-28.61-4.53,28.61H177.46L187.72,6.37h23.74L225.22,35l4.53-28.61h21.64Z"/>
    <path class="cls-1" d="M297.8,71.13H253L263.22,6.37h44.84l-2.86,18H283.52l-1,6h19.71l-2.57,16.23H280l-1,6.46h21.69Z"/>
    <path class="cls-1" d="M376.89,6.37,349.24,42.44,344.7,71.13H321.54l4.54-28.69L309.91,6.37H336l4.55,17.87L350.8,6.37Z"/>
    <g>
      <path class="cls-1" d="M446.3,51.46a21.18,21.18,0,0,1-7.4,13.38q-7.54,6.29-21.13,6.29H384.59L394.85,6.37h32.21q12.67,0,17.12,4.7,3.41,3.65,2.27,10.82A13.52,13.52,0,0,1,442,29.94a19.66,19.66,0,0,1-7.83,4.15q6.5,1.59,9.75,6Q447.36,44.75,446.3,51.46ZM424.75,27q.87-5.49-4.88-5.49h-4.74l-1.77,11.2Q423.84,32.75,424.75,27Zm-2.28,23.66q.93-5.87-5.53-5.87h-5.49l-1.71,10.82h5.49a8.79,8.79,0,0,0,4.35-1.22A5.3,5.3,0,0,0,422.47,50.71Z"/>
      <path class="cls-1" d="M516.29,71.13H491.92l-1-11.87H474.13L469.4,71.13H445L474.25,6.37h33.35ZM489.62,43.83l-1.55-19.08h-.17l-7.64,19.08Z"/>
      <path class="cls-1" d="M584.87,71.13h-23.7l-13.8-28.61-4.53,28.61H521.2L531.46,6.37H555.2L569,35l4.53-28.61h21.64Z"/>
      <path class="cls-1" d="M672.27,6.37l-26.8,32,16.46,32.72H635.1l-11-26.8-4.25,26.8H596.7L607,6.37h23.15L626.06,32,646.28,6.37Z"/>
    </g>
    <path class="cls-1" d="M141.18,0c-21.4,0-41.5,17.35-44.89,38.75S107.5,77.5,128.9,77.5s41.5-17.35,44.89-38.75S162.58,0,141.18,0Zm5.37,52.43a237,237,0,0,0-27.36,0,236.16,236.16,0,0,0,4.33-27.36,197.91,197.91,0,0,0,27.36,0A207.26,207.26,0,0,0,146.55,52.43Z"/>
  </g>
</svg>